<svg xmlns="http://www.w3.org/2000/svg" width="46.437" height="34.31" viewBox="0 0 46.437 34.31">
  <metadata><?xpacket begin="﻿" id="W5M0MpCehiHzreSzNTczkc9d"?>
<x:xmpmeta xmlns:x="adobe:ns:meta/" x:xmptk="Adobe XMP Core 5.6-c142 79.160924, 2017/07/13-01:06:39        ">
   <rdf:RDF xmlns:rdf="http://www.w3.org/1999/02/22-rdf-syntax-ns#">
      <rdf:Description rdf:about=""/>
   </rdf:RDF>
</x:xmpmeta>
                                                                                                    
                                                                                                    
                                                                                                    
                                                                                                    
                                                                                                    
                                                                                                    
                                                                                                    
                                                                                                    
                                                                                                    
                                                                                                    
                                                                                                    
                                                                                                    
                                                                                                    
                                                                                                    
                                                                                                    
                                                                                                    
                                                                                                    
                                                                                                    
                                                                                                    
                                                                                                    
                           
<?xpacket end="w"?></metadata>
<defs>
    <style>
      .cls-1 {
        fill: #40a6cf;
        fill-rule: evenodd;
      }
    </style>
  </defs>
  <path id="Forma_1" data-name="Forma 1" class="cls-1" d="M409.671,1861.95a4.012,4.012,0,0,0-.243-0.78,3.845,3.845,0,0,0-.4-0.75,4.873,4.873,0,0,0-.55-0.67,7.4,7.4,0,0,0-.667-0.57l0.094-.1a5.64,5.64,0,0,0,.578-0.76l0.027-.05a3.389,3.389,0,0,0,.41-0.97,4.349,4.349,0,0,0,.131-1.09,4.284,4.284,0,0,0-.09-0.87,3.943,3.943,0,0,0-.271-0.82,3.688,3.688,0,0,0-.451-0.75,3.9,3.9,0,0,0-.618-0.64,4.071,4.071,0,0,0-.757-0.52,5.386,5.386,0,0,0-.862-0.38,6.187,6.187,0,0,0-.951-0.23,7.079,7.079,0,0,0-1.029-.07,7.5,7.5,0,0,0-1.159.09,5.985,5.985,0,0,0-1.023.24h-0.054a6.259,6.259,0,0,0-.929.42,4.8,4.8,0,0,0-.772.53,4.736,4.736,0,0,0-.608.61,4.012,4.012,0,0,0-.451.63l-0.023.04a3.559,3.559,0,0,0-.3.71,2.527,2.527,0,0,0-.1.72,2.039,2.039,0,0,0,.135.74,1.821,1.821,0,0,0,.419.63,1.95,1.95,0,0,0,.546.37,1.542,1.542,0,0,0,.668.14,2.262,2.262,0,0,0,.45-0.04,2.025,2.025,0,0,0,.42-0.13,1.624,1.624,0,0,0,.352-0.22l0.054-.04a1.441,1.441,0,0,0,.3-0.41l0.045-.11c0.086-.18.171-0.38,0.307-0.67v-0.04q0.077-.165.171-0.33a1.554,1.554,0,0,1,.131-0.19l0.036-.04a0.792,0.792,0,0,1,.135-0.13,0.9,0.9,0,0,1,.217-0.11,0.85,0.85,0,0,1,.266-0.08,1.708,1.708,0,0,1,.451-0.03,1.3,1.3,0,0,1,.55.09,0.892,0.892,0,0,1,.356.24,1.15,1.15,0,0,1,.329.83,1.548,1.548,0,0,1-.108.61,1.019,1.019,0,0,1-.275.37,1.72,1.72,0,0,1-1.141.37H403.01a3.093,3.093,0,0,0-.8.1,1.969,1.969,0,0,0-.654.31l-0.055.04a1.7,1.7,0,0,0-.608,1.31,1.856,1.856,0,0,0,.126.69,1.55,1.55,0,0,0,.356.54l0.045,0.04a1.575,1.575,0,0,0,.627.36,2.333,2.333,0,0,0,.695.1H403l0.338-.03c0.239-.02.424-0.03,0.551-0.03a2.209,2.209,0,0,1,.766.11,1.3,1.3,0,0,1,.5.33,1.4,1.4,0,0,1,.32.53,2.418,2.418,0,0,1,.113.81,2.137,2.137,0,0,1-.068.56,1.634,1.634,0,0,1-.18.42v0.03a1.827,1.827,0,0,1-.307.38,1.5,1.5,0,0,1-.37.27,2.194,2.194,0,0,1-.428.17,2.266,2.266,0,0,1-.451.05,1.659,1.659,0,0,1-.695-0.12,1.077,1.077,0,0,1-.451-0.31,4.132,4.132,0,0,1-.482-0.72,8.544,8.544,0,0,1-.5-1.12,1.3,1.3,0,0,0-.248-0.42,1.65,1.65,0,0,0-.329-0.29,1.529,1.529,0,0,0-.451-0.2,1.411,1.411,0,0,0-.451-0.1,2.206,2.206,0,0,0-.762.14,1.882,1.882,0,0,0-.649.41,1.753,1.753,0,0,0-.451.61v0.04a2.077,2.077,0,0,0-.145.78,2.629,2.629,0,0,0,.1.7,4.987,4.987,0,0,0,.257.69v0.04a5.335,5.335,0,0,0,.424.74l0.032,0.05a7.128,7.128,0,0,0,.6.73,4.84,4.84,0,0,0,.8.67,5.976,5.976,0,0,0,.965.55,5.818,5.818,0,0,0,1.159.37,6.78,6.78,0,0,0,1.271.12,6.465,6.465,0,0,0,1.241-.11,5.891,5.891,0,0,0,1.091-.29h0.059a6.534,6.534,0,0,0,1.028-.54,5.1,5.1,0,0,0,.9-0.68,4.806,4.806,0,0,0,.712-0.81,5.091,5.091,0,0,0,.5-0.89v-0.05a5.162,5.162,0,0,0,.316-0.99,4.935,4.935,0,0,0,.108-1.03A4.531,4.531,0,0,0,409.671,1861.95Zm-1.4,1.63h0a3.619,3.619,0,0,1-.23.72v0.04a3.82,3.82,0,0,1-.365.63,3.733,3.733,0,0,1-.528.6,4.327,4.327,0,0,1-.649.5,4.656,4.656,0,0,1-.789.38l-0.055.03a5.878,5.878,0,0,1-.834.22,7.072,7.072,0,0,1-1.028.1,4.777,4.777,0,0,1-1-.1,3.251,3.251,0,0,1-.852-0.27,4.4,4.4,0,0,1-.753-0.41,3.8,3.8,0,0,1-.591-0.49,4.912,4.912,0,0,1-.451-0.56l-0.032-.04a4.12,4.12,0,0,1-.3-0.53v-0.03a3.5,3.5,0,0,1-.18-0.49,1.163,1.163,0,0,1-.05-0.32,0.651,0.651,0,0,1,.041-0.25,0.378,0.378,0,0,1,.1-0.14,0.641,0.641,0,0,1,.185-0.12,0.776,0.776,0,0,1,.262-0.04h0.067a0.292,0.292,0,0,1,.086.04l0.058,0.04a10.22,10.22,0,0,0,.578,1.3,5.57,5.57,0,0,0,.663.97,2.6,2.6,0,0,0,.978.69,3.174,3.174,0,0,0,1.218.22,2.939,2.939,0,0,0,.78-0.1,3.221,3.221,0,0,0,.735-0.28,3.143,3.143,0,0,0,.677-0.49,3.539,3.539,0,0,0,.532-0.66l0.027-.04a3.158,3.158,0,0,0,.334-0.79,3.45,3.45,0,0,0,.117-0.9,3.835,3.835,0,0,0-.2-1.26,2.851,2.851,0,0,0-.636-1.04,2.643,2.643,0,0,0-1.024-.66,3.6,3.6,0,0,0-1.258-.22,4.1,4.1,0,0,0-.686.05l-0.3.02H402.74a1.223,1.223,0,0,1-.271-0.03,0.329,0.329,0,0,1-.1-0.05,0.2,0.2,0,0,1-.027-0.05,0.531,0.531,0,0,1-.023-0.18,0.316,0.316,0,0,1,0-.13,0.208,0.208,0,0,1,.077-0.09,0.361,0.361,0,0,1,.167-0.07,1.71,1.71,0,0,1,.451-0.05h0.406a3.3,3.3,0,0,0,1.078-.17,3.092,3.092,0,0,0,.942-0.52l0.032-.03a2.421,2.421,0,0,0,.672-0.89,2.955,2.955,0,0,0,.225-1.17,2.512,2.512,0,0,0-.721-1.8,2.394,2.394,0,0,0-.875-0.59,2.944,2.944,0,0,0-1.06-.18,3.781,3.781,0,0,0-.672.05h-0.027a2.654,2.654,0,0,0-1.065.44,2.267,2.267,0,0,0-.4.37l-0.036.05a3.493,3.493,0,0,0-.24.35,3.865,3.865,0,0,0-.248.45v0.03l-0.311.7-0.031.07h-0.023l-0.1.03a0.574,0.574,0,0,1-.185,0,0.167,0.167,0,0,1-.1,0,0.4,0.4,0,0,1-.135-0.1,0.274,0.274,0,0,1-.082-0.12,0.62,0.62,0,0,1-.031-0.22,1.194,1.194,0,0,1,.049-0.34,2.136,2.136,0,0,1,.176-0.42v-0.02a2.772,2.772,0,0,1,.3-0.42,4.166,4.166,0,0,1,.451-0.45h0.027a3.529,3.529,0,0,1,.5-0.43,4.65,4.65,0,0,1,.713-0.32h0.04a6.906,6.906,0,0,1,.785-0.19,7.348,7.348,0,0,1,.938-0.1,5.639,5.639,0,0,1,.821.06,3.6,3.6,0,0,1,.721.17,2.893,2.893,0,0,1,.623.26,2.924,2.924,0,0,1,.527.36,2.789,2.789,0,0,1,.411.43,2.293,2.293,0,0,1,.284.52,2.492,2.492,0,0,1,.176.54,2.784,2.784,0,0,1,.058.58,3.094,3.094,0,0,1-.085.75,2.167,2.167,0,0,1-.244.58v0.04a3.879,3.879,0,0,1-.451.56,6.458,6.458,0,0,1-.64.62,0.7,0.7,0,0,0-.083.99,0.783,0.783,0,0,0,.2.16,5.386,5.386,0,0,1,.636.4,3.872,3.872,0,0,1,.509.44,3.37,3.37,0,0,1,.379.45,3.2,3.2,0,0,1,.271.5,2.58,2.58,0,0,1,.162.54,3.129,3.129,0,0,1,.054.6A3.656,3.656,0,0,1,408.269,1863.58Zm13.493-3.66a10.237,10.237,0,0,0-.18-2.02,4.853,4.853,0,0,0-.578-1.58,4.341,4.341,0,0,0-.87-1.05,3.092,3.092,0,0,0-1.132-.61h-0.036a6.357,6.357,0,0,0-1.141-.23,10.215,10.215,0,0,0-1.353-.09h-1.939a0.717,0.717,0,0,0-.7.71v9.89a0.709,0.709,0,0,0,.7.7h2.936a2.961,2.961,0,0,0,.541-0.03,4.578,4.578,0,0,0,.519-0.09,4.709,4.709,0,0,0,.518-0.15h0.036a3.016,3.016,0,0,0,.5-0.23,2.805,2.805,0,0,0,.451-0.33,4.444,4.444,0,0,0,1.322-2.06A8.713,8.713,0,0,0,421.762,1859.92Zm-1.741,2.38a3.119,3.119,0,0,1-.9,1.4,2.085,2.085,0,0,1-.248.17,1.545,1.545,0,0,1-.284.13,2.41,2.41,0,0,1-.37.1c-0.111.03-.224,0.04-0.338,0.06a3.758,3.758,0,0,0-.451.02h-2.187v-8.45h1.249a11.314,11.314,0,0,1,1.164.06,5.587,5.587,0,0,1,.9.19h0.027a1.7,1.7,0,0,1,.626.35,2.872,2.872,0,0,1,.582.7,3.573,3.573,0,0,1,.4,1.12,9,9,0,0,1,.144,1.75A7.348,7.348,0,0,1,420.021,1862.3Zm4.1-6.04a6.675,6.675,0,0,0-1.89-2.78,5.641,5.641,0,0,0-1.051-.73,5.03,5.03,0,0,0-1.181-.45,9.338,9.338,0,0,0-1.286-.23,14.432,14.432,0,0,0-1.47-.08h-3.856a3.957,3.957,0,0,0-1.028.14,1.921,1.921,0,0,0-1.353,1.35,3.5,3.5,0,0,0-.14,1.03v10.66c0,0.23.012,0.47,0.036,0.71a3.669,3.669,0,0,0,.118.62,1.73,1.73,0,0,0,.315.63,1.866,1.866,0,0,0,.492.45l0.04,0.03a2.133,2.133,0,0,0,.731.26,3.981,3.981,0,0,0,.843.08h3.874a8.2,8.2,0,0,0,1-.04c0.325-.03.622-0.05,0.9-0.1a6.4,6.4,0,0,0,.866-0.19,7.012,7.012,0,0,0,.776-0.29h0.036a5.6,5.6,0,0,0,.762-0.42,5.042,5.042,0,0,0,.663-0.51l0.045-.03a6.993,6.993,0,0,0,.757-0.82,6.26,6.26,0,0,0,.609-0.9,6.81,6.81,0,0,0,.451-0.98v-0.04a8.566,8.566,0,0,0,.316-1.12,10.739,10.739,0,0,0,.18-1.21q0.063-.66.063-1.32A10.361,10.361,0,0,0,424.121,1856.26Zm-0.826,4.85v0.01a9.344,9.344,0,0,1-.162,1.06,6.656,6.656,0,0,1-.262.93v0.03a5.25,5.25,0,0,1-.36.79,5.126,5.126,0,0,1-.483.73,5.706,5.706,0,0,1-.6.65l-0.023.02a3.854,3.854,0,0,1-.5.38,4.23,4.23,0,0,1-.573.32h-0.041a6.039,6.039,0,0,1-.595.22,5.364,5.364,0,0,1-.685.15q-0.36.06-.8,0.09a8.7,8.7,0,0,1-.9.03H413.45a2.707,2.707,0,0,1-.568-0.04,0.976,0.976,0,0,1-.288-0.1,0.521,0.521,0,0,1-.118-0.1,0.571,0.571,0,0,1-.072-0.15,2.427,2.427,0,0,1-.072-0.39,5.377,5.377,0,0,1-.027-0.56v-10.69a2.1,2.1,0,0,1,.05-0.61,0.557,0.557,0,0,1,.414-0.41,1.849,1.849,0,0,1,.618-0.07h3.852a9.721,9.721,0,0,1,1.321.06,7.871,7.871,0,0,1,1.078.19,3.872,3.872,0,0,1,.87.34,4.26,4.26,0,0,1,.794.55,5.4,5.4,0,0,1,1.511,2.17,9.007,9.007,0,0,1,.518,3.22A10.519,10.519,0,0,1,423.3,1861.11Zm6.413-18.21v0.01H393.179a4.958,4.958,0,0,0-4.961,4.95v24.41a4.949,4.949,0,0,0,4.961,4.94h36.529a4.949,4.949,0,0,0,4.961-4.94v-24.43A4.949,4.949,0,0,0,429.708,1842.9Zm3.252,29.37a3.259,3.259,0,0,1-3.252,3.24H393.179a3.259,3.259,0,0,1-3.252-3.24v-24.43a3.266,3.266,0,0,1,3.252-3.24h36.529a3.266,3.266,0,0,1,3.252,3.24v24.43Zm-6.138-25.56H396.079a4,4,0,0,0-3.987,3.98v18.73a4,4,0,0,0,3.991,3.98h30.744a4,4,0,0,0,3.986-3.97v-18.74A4,4,0,0,0,426.822,1846.71Zm2.3,22.72a2.291,2.291,0,0,1-2.3,2.28H396.079a2.292,2.292,0,0,1-2.3-2.28v-18.74a2.3,2.3,0,0,1,2.3-2.29h30.748a2.307,2.307,0,0,1,2.3,2.29v18.74Z" transform="translate(-388.219 -1842.91)"/>
</svg>
