<svg xmlns="http://www.w3.org/2000/svg" width="41" height="41" viewBox="0 0 41 41">
  <metadata><?xpacket begin="﻿" id="W5M0MpCehiHzreSzNTczkc9d"?>
<x:xmpmeta xmlns:x="adobe:ns:meta/" x:xmptk="Adobe XMP Core 5.6-c142 79.160924, 2017/07/13-01:06:39        ">
   <rdf:RDF xmlns:rdf="http://www.w3.org/1999/02/22-rdf-syntax-ns#">
      <rdf:Description rdf:about=""/>
   </rdf:RDF>
</x:xmpmeta>
                                                                                                    
                                                                                                    
                                                                                                    
                                                                                                    
                                                                                                    
                                                                                                    
                                                                                                    
                                                                                                    
                                                                                                    
                                                                                                    
                                                                                                    
                                                                                                    
                                                                                                    
                                                                                                    
                                                                                                    
                                                                                                    
                                                                                                    
                                                                                                    
                                                                                                    
                                                                                                    
                           
<?xpacket end="w"?></metadata>
<defs>
    <style>
      .cls-1 {
        fill: #40a6cf;
        fill-rule: evenodd;
      }
    </style>
  </defs>
  <path id="Forma_1" data-name="Forma 1" class="cls-1" d="M1110.47,1833.41h-16.98a3.557,3.557,0,0,0-2.81-1.42h-14.14a3.559,3.559,0,0,0-3.54,3.54v24.04a3.544,3.544,0,0,0,3.54,3.53h7.77v3.54a2.123,2.123,0,0,0,2.13,2.12h0.7v2.83h-10.6V1873h33.93v-1.41h-10.6v-2.83h0.7a2.115,2.115,0,0,0,2.12-2.12v-3.54h7.78a3.544,3.544,0,0,0,3.54-3.53v-22.63A3.544,3.544,0,0,0,1110.47,1833.41Zm-36.05,2.12a2.121,2.121,0,0,1,2.12-2.12h14.14a2.121,2.121,0,0,1,2.12,2.12v12.73a2.121,2.121,0,0,1-2.12,2.12h-14.14a2.121,2.121,0,0,1-2.12-2.12v-12.73Zm24.03,36.06h-9.89v-2.83h9.89v2.83Zm2.83-4.95a0.713,0.713,0,0,1-.71.71h-14.13a0.713,0.713,0,0,1-.71-0.71v-3.54h15.55v3.54Zm11.31-7.07a2.121,2.121,0,0,1-2.12,2.12h-33.93a2.121,2.121,0,0,1-2.12-2.12v-8.5a3.522,3.522,0,0,0,2.12.72h14.14a3.529,3.529,0,0,0,3.53-3.53v-12.73a3.353,3.353,0,0,0-.07-0.71h16.33a2.121,2.121,0,0,1,2.12,2.12v22.63Zm-28.98-9.9a7.78,7.78,0,1,0-7.78-7.78A7.774,7.774,0,0,0,1083.61,1849.67Zm0-14.14a6.365,6.365,0,1,1-6.36,6.36A6.363,6.363,0,0,1,1083.61,1835.53Zm26.15,0.71h-12.72a1.408,1.408,0,0,0-1.41,1.41v9.9a1.408,1.408,0,0,0,1.41,1.41h12.72a1.417,1.417,0,0,0,1.42-1.41v-9.9A1.417,1.417,0,0,0,1109.76,1836.24Zm0,11.31h-12.72v-9.9h12.72v9.9Z" transform="translate(-1073 -1832)"/>
</svg>
