<svg xmlns="http://www.w3.org/2000/svg" width="37" height="36" viewBox="0 0 37 36">
  <metadata><?xpacket begin="﻿" id="W5M0MpCehiHzreSzNTczkc9d"?>
<x:xmpmeta xmlns:x="adobe:ns:meta/" x:xmptk="Adobe XMP Core 5.6-c142 79.160924, 2017/07/13-01:06:39        ">
   <rdf:RDF xmlns:rdf="http://www.w3.org/1999/02/22-rdf-syntax-ns#">
      <rdf:Description rdf:about=""/>
   </rdf:RDF>
</x:xmpmeta>
                                                                                                    
                                                                                                    
                                                                                                    
                                                                                                    
                                                                                                    
                                                                                                    
                                                                                                    
                                                                                                    
                                                                                                    
                                                                                                    
                                                                                                    
                                                                                                    
                                                                                                    
                                                                                                    
                                                                                                    
                                                                                                    
                                                                                                    
                                                                                                    
                                                                                                    
                                                                                                    
                           
<?xpacket end="w"?></metadata>
<defs>
    <style>
      .cls-1 {
        fill: #40a6cf;
        fill-rule: evenodd;
      }
    </style>
  </defs>
  <path id="Forma_1" data-name="Forma 1" class="cls-1" d="M1030.5,2279.4a1.8,1.8,0,1,0,1.85,1.8A1.823,1.823,0,0,0,1030.5,2279.4Zm0,2.4a0.6,0.6,0,1,1,0-1.2A0.6,0.6,0,1,1,1030.5,2281.8Zm3.06-3.57a4.409,4.409,0,0,0-6.11,0,0.592,0.592,0,0,0,.02.85,0.63,0.63,0,0,0,.85,0,3.147,3.147,0,0,1,4.36,0,0.638,0.638,0,0,0,.88-0.02A0.585,0.585,0,0,0,1033.56,2278.23Zm1.76-1.68a0.038,0.038,0,0,1-.02-0.02,6.928,6.928,0,0,0-9.59,0,0.592,0.592,0,0,0,.01.85,0.643,0.643,0,0,0,.86,0,5.659,5.659,0,0,1,7.85,0,0.625,0.625,0,0,0,.87.02A0.6,0.6,0,0,0,1035.32,2276.55Zm1.72-1.71a9.44,9.44,0,0,0-13.08,0,0.58,0.58,0,0,0,.02.84,0.622,0.622,0,0,0,.86,0h0a8.178,8.178,0,0,1,11.33,0,0.625,0.625,0,0,0,.87-0.01A0.585,0.585,0,0,0,1037.04,2274.84Zm10.11-9.84h-33.29a1.823,1.823,0,0,0-1.85,1.8v24a1.823,1.823,0,0,0,1.85,1.8h11.03l-0.49,4.8h-1.91a0.613,0.613,0,0,0-.62.6v1.8h-1.23v1.2h19.73v-1.2h-1.23V2298a0.613,0.613,0,0,0-.62-0.6h-1.91l-0.49-4.8h11.03a1.829,1.829,0,0,0,1.85-1.8v-24A1.829,1.829,0,0,0,1047.15,2265Zm-9.25,33.6v1.2h-14.79v-1.2h14.79Zm-12.26-1.2,0.49-4.8h8.75l0.5,4.8h-9.74Zm22.13-6.6a0.613,0.613,0,0,1-.62.6h-33.29a0.613,0.613,0,0,1-.62-0.6v-24a0.613,0.613,0,0,1,.62-0.6h33.29a0.613,0.613,0,0,1,.62.6v24Zm-2.47-23.4h-29.59a1.225,1.225,0,0,0-1.24,1.2v18.6a0.613,0.613,0,0,0,.62.6h30.83a0.613,0.613,0,0,0,.62-0.6v-18.6A1.225,1.225,0,0,0,1045.3,2267.4Zm0,19.2h-29.59v-18h29.59v18Zm-15.41,2.4h1.23v1.2h-1.23V2289Z" transform="translate(-1012 -2265)"/>
</svg>
