<svg xmlns="http://www.w3.org/2000/svg" width="36" height="36" viewBox="0 0 36 36">
  <metadata><?xpacket begin="﻿" id="W5M0MpCehiHzreSzNTczkc9d"?>
<x:xmpmeta xmlns:x="adobe:ns:meta/" x:xmptk="Adobe XMP Core 5.6-c142 79.160924, 2017/07/13-01:06:39        ">
   <rdf:RDF xmlns:rdf="http://www.w3.org/1999/02/22-rdf-syntax-ns#">
      <rdf:Description rdf:about=""/>
   </rdf:RDF>
</x:xmpmeta>
                                                                                                    
                                                                                                    
                                                                                                    
                                                                                                    
                                                                                                    
                                                                                                    
                                                                                                    
                                                                                                    
                                                                                                    
                                                                                                    
                                                                                                    
                                                                                                    
                                                                                                    
                                                                                                    
                                                                                                    
                                                                                                    
                                                                                                    
                                                                                                    
                                                                                                    
                                                                                                    
                           
<?xpacket end="w"?></metadata>
<defs>
    <style>
      .cls-1 {
        fill: #40a6cf;
        fill-rule: evenodd;
      }
    </style>
  </defs>
  <path id="Forma_1" data-name="Forma 1" class="cls-1" d="M919.539,3293.27a0.611,0.611,0,0,0-.439-0.52l-1.621-.44c-0.039-.1-0.082-0.2-0.128-0.3l0.837-1.46a0.612,0.612,0,0,0-.1-0.73l-0.936-.93a0.609,0.609,0,0,0-.722-0.1l-1.46.84c-0.1-.05-0.2-0.09-0.3-0.13l-0.441-1.62a0.6,0.6,0,0,0-.513-0.44,7.1,7.1,0,0,0-1.457,0,0.6,0.6,0,0,0-.513.44l-0.441,1.62c-0.1.04-.205,0.08-0.3,0.13l-1.46-.84a0.609,0.609,0,0,0-.722.1l-0.936.93a0.61,0.61,0,0,0-.1.73l0.836,1.46c-0.046.1-.089,0.2-0.128,0.3l-1.621.44a0.609,0.609,0,0,0-.439.52,6.632,6.632,0,0,0,0,1.45,0.609,0.609,0,0,0,.439.52l1.621,0.44c0.039,0.1.082,0.2,0.128,0.3l-0.836,1.46a0.594,0.594,0,0,0,.1.72l0.936,0.94a0.609,0.609,0,0,0,.722.1l1.46-.84c0.1,0.05.2,0.09,0.3,0.13l0.441,1.62a0.6,0.6,0,0,0,.512.44,7.1,7.1,0,0,0,1.458,0,0.6,0.6,0,0,0,.513-0.44l0.441-1.62c0.1-.04.2-0.08,0.3-0.13l1.46,0.84a0.609,0.609,0,0,0,.722-0.1l0.936-.94a0.6,0.6,0,0,0,.1-0.72l-0.837-1.46c0.046-.1.089-0.2,0.128-0.3l1.621-.44a0.611,0.611,0,0,0,.439-0.52A6.632,6.632,0,0,0,919.539,3293.27Zm-1.163.92-1.521.41a0.611,0.611,0,0,0-.418.41,3.285,3.285,0,0,1-.293.7,0.609,0.609,0,0,0,.007.59l0.768,1.34-0.288.29-1.341-.77a0.606,0.606,0,0,0-.584-0.01,3.592,3.592,0,0,1-.7.3,0.593,0.593,0,0,0-.409.41l-0.414,1.52a2.552,2.552,0,0,1-.391,0l-0.414-1.52a0.591,0.591,0,0,0-.409-0.41,3.592,3.592,0,0,1-.7-0.3,0.608,0.608,0,0,0-.585.01l-1.34.77-0.288-.29,0.768-1.34a0.609,0.609,0,0,0,.007-0.59,3.337,3.337,0,0,1-.293-0.7,0.611,0.611,0,0,0-.418-0.41l-1.521-.41q-0.007-.2,0-0.39h0l1.521-.41a0.611,0.611,0,0,0,.418-0.41,3.662,3.662,0,0,1,.293-0.71,0.591,0.591,0,0,0-.007-0.58l-0.768-1.34,0.288-.29,1.34,0.77a0.608,0.608,0,0,0,.585.01,3.592,3.592,0,0,1,.7-0.3,0.591,0.591,0,0,0,.409-0.41l0.414-1.53h0.391l0.414,1.53a0.591,0.591,0,0,0,.409.41,3.592,3.592,0,0,1,.7.3,0.608,0.608,0,0,0,.585-0.01l1.34-.77,0.288,0.29-0.768,1.34a0.588,0.588,0,0,0-.006.58,3.658,3.658,0,0,1,.292.71,0.611,0.611,0,0,0,.418.41l1.521,0.41Q918.383,3294,918.376,3294.19Zm-5.383-2.59a2.4,2.4,0,1,0,2.4,2.4A2.4,2.4,0,0,0,912.993,3291.6Zm0,3.59a1.2,1.2,0,1,1,1.2-1.19A1.193,1.193,0,0,1,912.993,3295.19Zm5.993-7.79h1.2v1.2h-1.2v-1.2Zm2.4,0h1.2v1.2h-1.2v-1.2Zm-16.792,29.38H889.6a0.6,0.6,0,0,0-.6.6v3a0.6,0.6,0,0,0,.6.6h14.993a0.6,0.6,0,0,0,.6-0.6v-3A0.6,0.6,0,0,0,904.593,3316.78Zm-0.6,3H890.2v-1.8h13.794v1.8ZM924.384,3285h-22.79a0.6,0.6,0,0,0-.6.6v13.57a7.188,7.188,0,1,0,3.6,6.22h6.6v3.6h-4.2a0.6,0.6,0,0,0-.6.6v3a0.593,0.593,0,0,0,.6.59h11.994a0.592,0.592,0,0,0,.6-0.59v-3a0.6,0.6,0,0,0-.6-0.6h-3.6v-3.6h9a0.6,0.6,0,0,0,.6-0.6V3285.6A0.6,0.6,0,0,0,924.384,3285ZM897.4,3311.39a6,6,0,1,1,6-6A6,6,0,0,1,897.4,3311.39Zm20.991-1.2v1.8H907.592v-1.8h10.795Zm-6-1.2v-3.6h1.8v3.6h-1.8Zm11.395-4.8h-19.3a7.055,7.055,0,0,0-.312-1.2h19.611v1.2Zm0-2.4H903.619a7.39,7.39,0,0,0-1.425-1.75V3286.2h21.59v15.59Zm-26.388,1.2a2.4,2.4,0,1,0,2.4,2.4A2.4,2.4,0,0,0,897.4,3302.99Zm0,3.6a1.2,1.2,0,1,1,1.2-1.2A1.2,1.2,0,0,1,897.4,3306.59Zm-7.2,4.8h1.2v4.19h-1.2v-4.19Zm12.6,0h1.2v4.19h-1.2v-4.19Zm-2.4,1.79h1.2v2.4h-1.2v-2.4Zm-7.8,0h1.2v2.4h-1.2v-2.4Zm2.4,1.2h1.2v1.2H895v-1.2Zm3,0h1.2v1.2H898v-1.2Zm26.109-.21a3,3,0,0,0-4.24,0l-1.7,1.69a3,3,0,0,0,4.24,4.24l1.7-1.69A3,3,0,0,0,924.105,3314.17Zm-1.35.5-1.194,1.19-0.848-.85A1.8,1.8,0,0,1,922.755,3314.67Zm-1.194,4.58a1.8,1.8,0,1,1-2.548-2.54h0l0.848-.85,2.544,2.55Zm1.7-1.69h0l-0.848-.85,1.194-1.19A1.8,1.8,0,0,1,923.257,3317.56Z" transform="translate(-889 -3285)"/>
</svg>
