<svg xmlns="http://www.w3.org/2000/svg" width="40" height="42" viewBox="0 0 40 42">
  <metadata><?xpacket begin="﻿" id="W5M0MpCehiHzreSzNTczkc9d"?>
<x:xmpmeta xmlns:x="adobe:ns:meta/" x:xmptk="Adobe XMP Core 5.6-c142 79.160924, 2017/07/13-01:06:39        ">
   <rdf:RDF xmlns:rdf="http://www.w3.org/1999/02/22-rdf-syntax-ns#">
      <rdf:Description rdf:about=""/>
   </rdf:RDF>
</x:xmpmeta>
                                                                                                    
                                                                                                    
                                                                                                    
                                                                                                    
                                                                                                    
                                                                                                    
                                                                                                    
                                                                                                    
                                                                                                    
                                                                                                    
                                                                                                    
                                                                                                    
                                                                                                    
                                                                                                    
                                                                                                    
                                                                                                    
                                                                                                    
                                                                                                    
                                                                                                    
                                                                                                    
                           
<?xpacket end="w"?></metadata>
<defs>
    <style>
      .cls-1 {
        fill: #40a6cf;
        fill-rule: evenodd;
      }
    </style>
  </defs>
  <path id="Forma_1" data-name="Forma 1" class="cls-1" d="M919.781,7269H895.4a0.75,0.75,0,0,0-.762.74v16.29a0.75,0.75,0,0,0,.762.74h1.524v4.51a1.474,1.474,0,0,0,1.524,1.42h4.573v2.22h-5.335a0.77,0.77,0,0,0-.538.22L888,7304.03l1.078,1.04L898,7296.4h17.9a2.323,2.323,0,0,1-2.21,2.22H905.3v1.49h8.382c3.014,0,3.81-2.91,3.81-4.45a0.75,0.75,0,0,0-.762-0.74h-4.572v-2.22H916.8a1.471,1.471,0,0,0,1.461-1.48v-4.45h1.524a0.75,0.75,0,0,0,.762-0.74v-16.29A0.75,0.75,0,0,0,919.781,7269Zm-23.623,16.29v-14.81H911.4v14.81H896.158Zm20.575,5.93H911.4a0.75,0.75,0,0,0-.762.74v2.96h-2.286v-6.66h-1.524v6.66h-2.286v-2.96a0.75,0.75,0,0,0-.762-0.74h-5.335v-4.45h18.289v4.45Zm2.286-5.93h-6.1v-14.81h6.1v14.81Zm7.4,4.66a0.775,0.775,0,0,0-1.077,0l-6.859,6.67,1.078,1.05,6.259-6.09a3.1,3.1,0,0,1-.478,4.3l-8.921,8.67H900.731a0.77,0.77,0,0,0-.539.22l-5.334,5.18,1.077,1.05,5.111-4.97h15.687a0.772,0.772,0,0,0,.539-0.22l9.144-8.88A4.672,4.672,0,0,0,926.416,7289.95Zm-27.972-17.99a0.751,0.751,0,0,0-.762.74v2.22h1.524v-1.48h1.525v-1.48h-2.287Zm9.907,8.89v1.48h-1.524v1.48h2.286a0.75,0.75,0,0,0,.762-0.74v-2.22h-1.524Zm-3.81-3.7v-1.48h-1.524v1.48h-1.524v1.48h1.524v1.48h1.524v-1.48h1.524v-1.48h-1.524Zm6.1,11.11h1.524v1.48h-1.524v-1.48Zm3.048,0h1.524v1.48h-1.524v-1.48Zm-13.717,0h1.524v1.48h-1.524v-1.48Zm3.048,0h1.524v1.48h-1.524v-1.48Z" transform="translate(-888 -7269)"/>
</svg>
