<svg xmlns="http://www.w3.org/2000/svg" width="52" height="24" viewBox="0 0 52 24">
  <metadata><?xpacket begin="﻿" id="W5M0MpCehiHzreSzNTczkc9d"?>
<x:xmpmeta xmlns:x="adobe:ns:meta/" x:xmptk="Adobe XMP Core 5.6-c142 79.160924, 2017/07/13-01:06:39        ">
   <rdf:RDF xmlns:rdf="http://www.w3.org/1999/02/22-rdf-syntax-ns#">
      <rdf:Description rdf:about=""/>
   </rdf:RDF>
</x:xmpmeta>
                                                                                                    
                                                                                                    
                                                                                                    
                                                                                                    
                                                                                                    
                                                                                                    
                                                                                                    
                                                                                                    
                                                                                                    
                                                                                                    
                                                                                                    
                                                                                                    
                                                                                                    
                                                                                                    
                                                                                                    
                                                                                                    
                                                                                                    
                                                                                                    
                                                                                                    
                                                                                                    
                           
<?xpacket end="w"?></metadata>
<defs>
    <style>
      .cls-1 {
        fill: #40a6cf;
        fill-rule: evenodd;
      }
    </style>
  </defs>
  <path id="Forma_1" data-name="Forma 1" class="cls-1" d="M438.237,2204.4h-6.564v-0.05a2.392,2.392,0,0,0-4.783,0v0.05h-6.563a0.755,0.755,0,1,0,0,1.51h5.749v0.85c0,0.02,0,.03,0,0.05H399.922c0-.02,0-0.03,0-0.05v-0.85h5.749a0.755,0.755,0,1,0,0-1.51h-6.564v-0.05a2.391,2.391,0,0,0-4.782,0v0.05h-6.564a0.755,0.755,0,1,0,0,1.51h5.75v0.85a3.211,3.211,0,0,0,5.994,1.56h4.8l0.712,2.11a4.011,4.011,0,0,0,3.813,2.71h3.4v1.71h-4.122a3.188,3.188,0,0,0-3.2,3.16v4.83a3.188,3.188,0,0,0,3.2,3.16h9.769a3.188,3.188,0,0,0,3.206-3.16v-4.83a3.188,3.188,0,0,0-3.206-3.16h-4.121v-1.71h3.4a4.011,4.011,0,0,0,3.813-2.71l0.712-2.11h4.8a3.211,3.211,0,0,0,5.994-1.56v-0.85h5.75A0.755,0.755,0,1,0,438.237,2204.4Zm-42.384-.05a0.865,0.865,0,0,1,1.73,0v0.05h-1.73v-0.05Zm0.865,4.07a1.675,1.675,0,0,1-1.679-1.66v-0.85H398.4v0.85A1.675,1.675,0,0,1,396.718,2208.42Zm22.846,9.59v4.83a1.667,1.667,0,0,1-1.68,1.65h-9.769a1.667,1.667,0,0,1-1.679-1.65v-4.83a1.675,1.675,0,0,1,1.679-1.66h9.769A1.676,1.676,0,0,1,419.564,2218.01Zm-0.033-8.06a2.481,2.481,0,0,1-2.365,1.68h-8.332a2.48,2.48,0,0,1-2.365-1.68l-0.551-1.63h14.164Zm8.886-5.6a0.865,0.865,0,0,1,1.73,0v0.05h-1.73v-0.05Zm2.544,2.41a1.679,1.679,0,0,1-3.358,0v-0.85h3.358v0.85Zm-20.4,10.5a3.165,3.165,0,1,0,3.2,3.16A3.188,3.188,0,0,0,410.558,2217.26Zm0,4.82a1.655,1.655,0,1,1,1.679-1.66A1.668,1.668,0,0,1,410.558,2222.08Zm5.7-3.31h0.814a0.755,0.755,0,1,0,0-1.51h-0.814A0.755,0.755,0,1,0,416.256,2218.77Zm-5.7.9a0.775,0.775,0,0,0-.54.22,0.753,0.753,0,0,0,0,1.07,0.764,0.764,0,0,0,1.3-.54,0.763,0.763,0,0,0-.224-0.53A0.772,0.772,0,0,0,410.558,2219.67Z" transform="translate(-387 -2202)"/>
</svg>
