<svg xmlns="http://www.w3.org/2000/svg" width="36" height="46" viewBox="0 0 36 46">
  <metadata><?xpacket begin="﻿" id="W5M0MpCehiHzreSzNTczkc9d"?>
<x:xmpmeta xmlns:x="adobe:ns:meta/" x:xmptk="Adobe XMP Core 5.6-c142 79.160924, 2017/07/13-01:06:39        ">
   <rdf:RDF xmlns:rdf="http://www.w3.org/1999/02/22-rdf-syntax-ns#">
      <rdf:Description rdf:about=""/>
   </rdf:RDF>
</x:xmpmeta>
                                                                                                    
                                                                                                    
                                                                                                    
                                                                                                    
                                                                                                    
                                                                                                    
                                                                                                    
                                                                                                    
                                                                                                    
                                                                                                    
                                                                                                    
                                                                                                    
                                                                                                    
                                                                                                    
                                                                                                    
                                                                                                    
                                                                                                    
                                                                                                    
                                                                                                    
                                                                                                    
                           
<?xpacket end="w"?></metadata>
<defs>
    <style>
      .cls-1 {
        fill: #40a6cf;
        fill-rule: evenodd;
      }
    </style>
  </defs>
  <path id="Forma_1" data-name="Forma 1" class="cls-1" d="M925.218,5363H899.387a0.806,0.806,0,0,0-.554.22l-8.61,8.45a0.751,0.751,0,0,0-.228.54v36.02a0.773,0.773,0,0,0,.782.77h34.441a0.774,0.774,0,0,0,.783-0.77v-44.46A0.774,0.774,0,0,0,925.218,5363Zm-0.783,24.53H922.87v-6.13h1.565v6.13Zm0-7.66h-2.348a0.772,0.772,0,0,0-.783.76v7.67a0.78,0.78,0,0,0,.783.77h2.348v18.4H891.56v-34.94l8.15-8h24.725v15.34Zm-4.7-13.8H921.3v12.26h-1.565v-12.26Zm-4.7,0h1.566v12.26h-1.566v-12.26Zm-4.7,0h1.565v12.26h-1.565v-12.26Zm-4.7,0h1.566v12.26h-1.566v-12.26Zm-4.7,0h1.565v12.26h-1.565v-12.26Zm19.569,24.53H895.474a0.774,0.774,0,0,0-.783.77v12.26a0.774,0.774,0,0,0,.783.77h25.048a0.773,0.773,0,0,0,.782-0.77v-12.26A0.773,0.773,0,0,0,920.522,5390.6Zm-0.783,12.27H896.256v-10.74h23.483v10.74Zm-25.048-17.64v3.07a0.78,0.78,0,0,0,.783.77h17.22a0.78,0.78,0,0,0,.783-0.77v-3.07a0.772,0.772,0,0,0-.783-0.76h-17.22A0.772,0.772,0,0,0,894.691,5385.23Zm1.565,0.77h15.655v1.53H896.256V5386Z" transform="translate(-890 -5363)"/>
</svg>
