<svg xmlns="http://www.w3.org/2000/svg" width="37" height="36" viewBox="0 0 37 36">
  <metadata><?xpacket begin="﻿" id="W5M0MpCehiHzreSzNTczkc9d"?>
<x:xmpmeta xmlns:x="adobe:ns:meta/" x:xmptk="Adobe XMP Core 5.6-c142 79.160924, 2017/07/13-01:06:39        ">
   <rdf:RDF xmlns:rdf="http://www.w3.org/1999/02/22-rdf-syntax-ns#">
      <rdf:Description rdf:about=""/>
   </rdf:RDF>
</x:xmpmeta>
                                                                                                    
                                                                                                    
                                                                                                    
                                                                                                    
                                                                                                    
                                                                                                    
                                                                                                    
                                                                                                    
                                                                                                    
                                                                                                    
                                                                                                    
                                                                                                    
                                                                                                    
                                                                                                    
                                                                                                    
                                                                                                    
                                                                                                    
                                                                                                    
                                                                                                    
                                                                                                    
                           
<?xpacket end="w"?></metadata>
<defs>
    <style>
      .cls-1 {
        fill: #40a6cf;
        fill-rule: evenodd;
      }
    </style>
  </defs>
  <path id="Forma_1" data-name="Forma 1" class="cls-1" d="M423.385,2397.99H387.623a0.622,0.622,0,0,0-.616.63v26.07a0.62,0.62,0,0,0,.616.62h12.038l-2.129,5.36a0.607,0.607,0,0,0-.043.23v1.86h-1.85V2434h19.73v-1.24H413.52v-1.86a0.608,0.608,0,0,0-.044-0.23l-2.129-5.36h12.038a0.62,0.62,0,0,0,.617-0.62v-26.07A0.622,0.622,0,0,0,423.385,2397.99Zm-11.1,34.77H398.722v-1.24h13.565v1.24Zm-0.295-2.48H399.016l1.973-4.97h9.03Zm10.776-6.21H388.24v-24.83h34.528v24.83Zm-32.678-1.24h30.829a0.62,0.62,0,0,0,.616-0.62V2401.1a0.62,0.62,0,0,0-.616-0.62H390.09a0.62,0.62,0,0,0-.617.62v21.11A0.62,0.62,0,0,0,390.09,2422.83Zm0.616-21.11h29.6v19.87h-29.6v-19.87Zm12.332,3.72h-1.233v6.21h-3.7v-6.21h-1.233v6.83a0.614,0.614,0,0,0,.617.62h4.316v4.97h1.233v-4.97h1.233v-1.24h-1.233v-6.21Zm11.1,0H412.9a5.585,5.585,0,0,1-4.933,5.56v-5.56h-1.233v12.42h1.233v-5.55a5.583,5.583,0,0,1,4.933,5.55h1.233A6.84,6.84,0,0,1,414.136,2405.44Z" transform="translate(-387 -2398)"/>
</svg>
