<svg xmlns="http://www.w3.org/2000/svg" width="36" height="35" viewBox="0 0 36 35">
  <metadata><?xpacket begin="﻿" id="W5M0MpCehiHzreSzNTczkc9d"?>
<x:xmpmeta xmlns:x="adobe:ns:meta/" x:xmptk="Adobe XMP Core 5.6-c142 79.160924, 2017/07/13-01:06:39        ">
   <rdf:RDF xmlns:rdf="http://www.w3.org/1999/02/22-rdf-syntax-ns#">
      <rdf:Description rdf:about=""/>
   </rdf:RDF>
</x:xmpmeta>
                                                                                                    
                                                                                                    
                                                                                                    
                                                                                                    
                                                                                                    
                                                                                                    
                                                                                                    
                                                                                                    
                                                                                                    
                                                                                                    
                                                                                                    
                                                                                                    
                                                                                                    
                                                                                                    
                                                                                                    
                                                                                                    
                                                                                                    
                                                                                                    
                                                                                                    
                                                                                                    
                           
<?xpacket end="w"?></metadata>
<defs>
    <style>
      .cls-1 {
        fill: #40a6cf;
        fill-rule: evenodd;
      }
    </style>
  </defs>
  <path id="Forma_1" data-name="Forma 1" class="cls-1" d="M925.4,7359H890.6a0.6,0.6,0,0,0-.6.6v25.35a0.6,0.6,0,0,0,.6.6h11.714l-2.071,5.21a0.557,0.557,0,0,0-.043.22v1.81h-1.8V7394h19.2v-1.21h-1.8v-1.81a0.575,0.575,0,0,0-.043-0.22l-2.071-5.21H925.4a0.6,0.6,0,0,0,.6-0.6V7359.6A0.6,0.6,0,0,0,925.4,7359Zm-10.8,33.79H901.4v-1.2h13.2v1.2Zm-0.286-2.41H901.686l1.92-4.83h8.788Zm10.486-6.04H891.2v-24.13h33.6v24.13Zm-31.8-1.2h30a0.6,0.6,0,0,0,.6-0.61v-20.51a0.6,0.6,0,0,0-.6-0.61H893a0.6,0.6,0,0,0-.6.61v20.51A0.6,0.6,0,0,0,893,7383.14Zm0.6-20.52h28.8v19.31H893.6v-19.31Zm12,3.62h-1.2v6.03h-3.6v-6.03h-1.2v6.64a0.6,0.6,0,0,0,.6.6h4.2v4.83h1.2v-4.83h1.2v-1.21h-1.2v-6.03Zm10.8,0h-1.2a5.434,5.434,0,0,1-4.8,5.4v-5.4h-1.2v12.07h1.2v-5.4a5.434,5.434,0,0,1,4.8,5.4h1.2A6.643,6.643,0,0,1,916.4,7366.24Z" transform="translate(-890 -7359)"/>
</svg>
