<svg xmlns="http://www.w3.org/2000/svg" width="36" height="35" viewBox="0 0 36 35">
  <metadata><?xpacket begin="﻿" id="W5M0MpCehiHzreSzNTczkc9d"?>
<x:xmpmeta xmlns:x="adobe:ns:meta/" x:xmptk="Adobe XMP Core 5.6-c142 79.160924, 2017/07/13-01:06:39        ">
   <rdf:RDF xmlns:rdf="http://www.w3.org/1999/02/22-rdf-syntax-ns#">
      <rdf:Description rdf:about=""/>
   </rdf:RDF>
</x:xmpmeta>
                                                                                                    
                                                                                                    
                                                                                                    
                                                                                                    
                                                                                                    
                                                                                                    
                                                                                                    
                                                                                                    
                                                                                                    
                                                                                                    
                                                                                                    
                                                                                                    
                                                                                                    
                                                                                                    
                                                                                                    
                                                                                                    
                                                                                                    
                                                                                                    
                                                                                                    
                                                                                                    
                           
<?xpacket end="w"?></metadata>
<defs>
    <style>
      .cls-1 {
        fill: #40a6cf;
        fill-rule: evenodd;
      }
    </style>
  </defs>
  <path id="Forma_1" data-name="Forma 1" class="cls-1" d="M925.4,9623H890.6a0.6,0.6,0,0,0-.6.61v25.34a0.6,0.6,0,0,0,.6.61h11.714l-2.071,5.2a0.607,0.607,0,0,0-.043.23v1.81h-1.8v1.2h19.2v-1.2h-1.8v-1.81a0.607,0.607,0,0,0-.043-0.23l-2.071-5.2H925.4a0.6,0.6,0,0,0,.6-0.61v-25.34A0.6,0.6,0,0,0,925.4,9623Zm-10.8,33.8H901.4v-1.21h13.2v1.21Zm-0.286-2.42H901.686l1.92-4.82h8.788Zm10.486-6.03H891.2v-24.14h33.6v24.14Zm-31.8-1.21h30a0.6,0.6,0,0,0,.6-0.6v-20.52a0.6,0.6,0,0,0-.6-0.6H893a0.6,0.6,0,0,0-.6.6v20.52A0.6,0.6,0,0,0,893,9647.14Zm0.6-20.52h28.8v19.31H893.6v-19.31Zm12,9.06h-6v-6.04h-1.2v13.28h1.2v-6.04h6v6.04h1.2v-13.28h-1.2v6.04Zm7.8-6.04h-3.6a0.6,0.6,0,0,0-.6.61v12.06a0.6,0.6,0,0,0,.6.61h3.6a4.222,4.222,0,0,0,4.2-4.23v-4.82A4.216,4.216,0,0,0,913.4,9629.64Zm3,9.05a3.011,3.011,0,0,1-3,3.02h-3v-10.86h3a3.011,3.011,0,0,1,3,3.02v4.82Z" transform="translate(-890 -9623)"/>
</svg>
