<svg xmlns="http://www.w3.org/2000/svg" width="38" height="32" viewBox="0 0 38 32">
  <metadata><?xpacket begin="﻿" id="W5M0MpCehiHzreSzNTczkc9d"?>
<x:xmpmeta xmlns:x="adobe:ns:meta/" x:xmptk="Adobe XMP Core 5.6-c142 79.160924, 2017/07/13-01:06:39        ">
   <rdf:RDF xmlns:rdf="http://www.w3.org/1999/02/22-rdf-syntax-ns#">
      <rdf:Description rdf:about=""/>
   </rdf:RDF>
</x:xmpmeta>
                                                                                                    
                                                                                                    
                                                                                                    
                                                                                                    
                                                                                                    
                                                                                                    
                                                                                                    
                                                                                                    
                                                                                                    
                                                                                                    
                                                                                                    
                                                                                                    
                                                                                                    
                                                                                                    
                                                                                                    
                                                                                                    
                                                                                                    
                                                                                                    
                                                                                                    
                                                                                                    
                           
<?xpacket end="w"?></metadata>
<defs>
    <style>
      .cls-1 {
        fill: #40a6cf;
        fill-rule: evenodd;
      }
    </style>
  </defs>
  <path id="Forma_1" data-name="Forma 1" class="cls-1" d="M904.833,9436.17a0.611,0.611,0,0,0,.321-0.09l7.645-4.52a0.647,0.647,0,0,0,.226-0.88,0.729,0.729,0,0,0-.226-0.23l-7.645-4.52a0.631,0.631,0,0,0-.867.22,0.656,0.656,0,0,0-.087.33v9.05A0.638,0.638,0,0,0,904.833,9436.17Zm0.634-8.57,5.759,3.4-5.759,3.41v-6.81Zm20.9-12.6H889.633a0.639,0.639,0,0,0-.633.64v30.72a0.633,0.633,0,0,0,.633.64h36.734a0.633,0.633,0,0,0,.633-0.64v-30.72A0.639,0.639,0,0,0,926.367,9415Zm-11.4,1.28h5.066v6.4h-5.066v-6.4Zm3.166,7.68v14.08H897.867v-14.08h20.266Zm-9.5-7.68H913.7v6.4h-5.067v-6.4Zm-6.333,0h5.067v6.4H902.3v-6.4Zm-6.333,0h5.066v6.4h-5.066v-6.4Zm-5.7,0H894.7v6.4h-4.433v-6.4Zm0,7.68H896.6v14.08h-6.333v-14.08Zm4.433,21.76h-4.433v-6.4H894.7v6.4Zm6.333,0h-5.066v-6.4h5.066v6.4Zm6.334,0H902.3v-6.4h5.067v6.4Zm6.333,0h-5.067v-6.4H913.7v6.4Zm6.333,0h-5.066v-6.4h5.066v6.4Zm5.7,0H921.3v-6.4h4.433v6.4Zm0-7.68H919.4v-14.08h6.333v14.08Zm0-15.36H921.3v-6.4h4.433v6.4Z" transform="translate(-889 -9415)"/>
</svg>
