<svg xmlns="http://www.w3.org/2000/svg" width="41" height="41" viewBox="0 0 41 41">
  <metadata><?xpacket begin="﻿" id="W5M0MpCehiHzreSzNTczkc9d"?>
<x:xmpmeta xmlns:x="adobe:ns:meta/" x:xmptk="Adobe XMP Core 5.6-c142 79.160924, 2017/07/13-01:06:39        ">
   <rdf:RDF xmlns:rdf="http://www.w3.org/1999/02/22-rdf-syntax-ns#">
      <rdf:Description rdf:about=""/>
   </rdf:RDF>
</x:xmpmeta>
                                                                                                    
                                                                                                    
                                                                                                    
                                                                                                    
                                                                                                    
                                                                                                    
                                                                                                    
                                                                                                    
                                                                                                    
                                                                                                    
                                                                                                    
                                                                                                    
                                                                                                    
                                                                                                    
                                                                                                    
                                                                                                    
                                                                                                    
                                                                                                    
                                                                                                    
                                                                                                    
                           
<?xpacket end="w"?></metadata>
<defs>
    <style>
      .cls-1 {
        fill: #40a6cf;
        fill-rule: evenodd;
      }
    </style>
  </defs>
  <path id="Forma_1" data-name="Forma 1" class="cls-1" d="M1098.3,2027.93a1.275,1.275,0,0,0-.19.01,5.462,5.462,0,0,0-10.75,1.36v0.07a3.414,3.414,0,0,0,.68,6.76h0.68v-1.36h-0.68a2.055,2.055,0,1,1-.03-4.11c0.02,0,.05.01,0.07,0.01a0.759,0.759,0,0,0,.53-0.23,0.684,0.684,0,0,0,.16-0.55,4.093,4.093,0,0,1,8.11-1.11,0.7,0.7,0,0,0,.77.6,0.109,0.109,0,0,1,.05-0.01,2.379,2.379,0,0,1,.59-0.07,2.735,2.735,0,0,1,0,5.47h-1.37v1.36h1.37A4.1,4.1,0,0,0,1098.3,2027.93Zm-1.98,8.52-0.77.77v-5.19h-1.36v5.19l-0.77-.77-0.96.97,1.93,1.93a0.67,0.67,0,0,0,.96,0l1.94-1.93Zm-5.07-4.9a0.688,0.688,0,0,0-.96,0l-1.93,1.93,0.96,0.97,0.77-.77v5.19h1.36v-5.19l0.77,0.77,0.97-.97Zm20.7-14.55h-36.89a2.053,2.053,0,0,0-2.05,2.05v27.33a2.053,2.053,0,0,0,2.05,2.05h12.23l-0.55,5.47h-2.12a0.681,0.681,0,0,0-.68.68v2.05h-1.37V2058h21.87v-1.37h-1.37v-2.05a0.681,0.681,0,0,0-.68-0.68h-2.12l-0.54-5.47h12.22a2.053,2.053,0,0,0,2.05-2.05v-27.33A2.053,2.053,0,0,0,1111.95,2017Zm-10.25,38.27v1.36h-16.39v-1.36h16.39Zm-13.59-1.37,0.55-5.47h9.7l0.54,5.47h-10.79Zm24.53-7.52a0.691,0.691,0,0,1-.69.69h-36.89a0.691,0.691,0,0,1-.69-0.69v-27.33a0.683,0.683,0,0,1,.69-0.68h36.89a0.683,0.683,0,0,1,.69.68v27.33Zm-2.74-26.65h-32.79a1.366,1.366,0,0,0-1.37,1.37v21.18a0.689,0.689,0,0,0,.68.69h34.17a0.689,0.689,0,0,0,.68-0.69V2021.1A1.366,1.366,0,0,0,1109.9,2019.73Zm0,21.87h-32.79v-20.5h32.79v20.5Zm-17.08,2.73h1.37v1.37h-1.37v-1.37Z" transform="translate(-1073 -2017)"/>
</svg>
