<svg 
 xmlns="http://www.w3.org/2000/svg"
 xmlns:xlink="http://www.w3.org/1999/xlink"
 width="43px" height="36px">
<path fill-rule="evenodd"  fill="rgb(64, 166, 207)"
 d="M42.285,32.557 L42.285,35.278 C42.285,35.676 41.964,35.999 41.569,35.999 L24.371,35.999 C23.975,35.999 23.655,35.676 23.655,35.278 L23.655,32.557 C23.200,32.151 22.940,31.569 22.938,30.959 L22.938,2.158 C22.938,0.966 23.900,-0.001 25.088,-0.001 L40.852,-0.001 C42.039,-0.001 43.002,0.966 43.002,2.158 L43.002,30.959 C43.000,31.569 42.739,32.151 42.285,32.557 ZM25.088,34.558 L40.852,34.558 L40.852,33.118 L25.088,33.118 L25.088,34.558 ZM41.569,2.158 C41.569,1.762 41.248,1.439 40.852,1.439 L25.088,1.439 C24.692,1.439 24.371,1.762 24.371,2.158 L24.371,30.959 C24.371,31.356 24.692,31.679 25.088,31.679 L40.852,31.679 C41.248,31.679 41.569,31.356 41.569,30.959 L41.569,2.158 ZM32.970,30.239 C29.014,30.235 25.809,27.014 25.804,23.039 C25.804,19.062 29.012,15.839 32.970,15.839 C36.927,15.839 40.136,19.062 40.136,23.039 C40.136,27.016 36.927,30.239 32.970,30.239 ZM32.970,17.279 C29.805,17.283 27.241,19.859 27.237,23.039 C27.237,26.220 29.804,28.799 32.970,28.799 C36.136,28.799 38.703,26.220 38.703,23.039 C38.703,19.858 36.136,17.279 32.970,17.279 ZM32.970,25.199 C31.783,25.199 30.820,24.231 30.820,23.039 C30.820,21.846 31.783,20.879 32.970,20.879 C34.157,20.879 35.120,21.846 35.120,23.039 C35.120,24.231 34.157,25.199 32.970,25.199 ZM32.970,22.319 C32.574,22.319 32.253,22.642 32.253,23.039 C32.253,23.437 32.574,23.759 32.970,23.759 C33.366,23.759 33.686,23.437 33.686,23.039 C33.686,22.642 33.366,22.319 32.970,22.319 ZM32.970,12.959 C30.201,12.956 27.957,10.701 27.954,7.919 C27.954,5.135 30.200,2.879 32.970,2.879 C35.740,2.879 37.986,5.135 37.986,7.919 C37.986,10.703 35.740,12.959 32.970,12.959 ZM32.970,4.319 C30.992,4.321 29.389,5.932 29.387,7.919 C29.387,9.907 30.991,11.519 32.970,11.519 C34.949,11.519 36.553,9.907 36.553,7.919 C36.553,5.930 34.949,4.319 32.970,4.319 ZM32.970,10.079 C31.783,10.079 30.820,9.113 30.820,7.919 C30.820,6.726 31.783,5.759 32.970,5.759 C34.157,5.759 35.120,6.726 35.120,7.919 C35.120,9.113 34.157,10.079 32.970,10.079 ZM32.970,7.198 C32.574,7.198 32.253,7.521 32.253,7.919 C32.253,8.316 32.574,8.639 32.970,8.639 C33.366,8.639 33.686,8.316 33.686,7.919 C33.686,7.521 33.366,7.198 32.970,7.198 ZM19.355,35.278 C19.355,35.676 19.034,35.999 18.639,35.999 L1.441,35.999 C1.045,35.999 0.724,35.676 0.724,35.278 L0.724,32.557 C0.270,32.151 0.010,31.569 0.008,30.959 L0.008,2.158 C0.008,0.966 0.970,-0.001 2.157,-0.001 L17.922,-0.001 C19.109,-0.001 20.072,0.966 20.072,2.158 L20.072,30.959 C20.070,31.569 19.809,32.151 19.355,32.557 L19.355,35.278 ZM2.157,34.558 L17.922,34.558 L17.922,33.118 L2.157,33.118 L2.157,34.558 ZM18.639,2.158 C18.639,1.762 18.318,1.439 17.922,1.439 L2.157,1.439 C1.762,1.439 1.441,1.762 1.441,2.158 L1.441,30.959 C1.441,31.356 1.762,31.679 2.157,31.679 L17.922,31.679 C18.318,31.679 18.639,31.356 18.639,30.959 L18.639,2.158 ZM10.040,30.239 C6.084,30.235 2.878,27.014 2.874,23.039 C2.874,19.062 6.082,15.839 10.040,15.839 C13.997,15.839 17.205,19.062 17.205,23.039 C17.205,27.016 13.997,30.239 10.040,30.239 ZM10.040,17.279 C6.875,17.283 4.311,19.859 4.307,23.039 C4.307,26.220 6.874,28.799 10.040,28.799 C13.206,28.799 15.772,26.220 15.772,23.039 C15.772,19.858 13.206,17.279 10.040,17.279 ZM10.040,25.199 C8.852,25.199 7.890,24.231 7.890,23.039 C7.890,21.846 8.852,20.879 10.040,20.879 C11.227,20.879 12.189,21.846 12.189,23.039 C12.189,24.231 11.227,25.199 10.040,25.199 ZM10.040,22.319 C9.644,22.319 9.323,22.642 9.323,23.039 C9.323,23.437 9.644,23.759 10.040,23.759 C10.435,23.759 10.756,23.437 10.756,23.039 C10.756,22.642 10.435,22.319 10.040,22.319 ZM10.040,12.959 C7.271,12.956 5.027,10.701 5.024,7.919 C5.024,5.135 7.269,2.879 10.040,2.879 C12.810,2.879 15.056,5.135 15.056,7.919 C15.056,10.703 12.810,12.959 10.040,12.959 ZM10.040,4.319 C8.062,4.321 6.459,5.932 6.457,7.919 C6.457,9.907 8.061,11.519 10.040,11.519 C12.018,11.519 13.623,9.907 13.623,7.919 C13.623,5.930 12.018,4.319 10.040,4.319 ZM10.040,10.079 C8.852,10.079 7.890,9.113 7.890,7.919 C7.890,6.726 8.852,5.759 10.040,5.759 C11.227,5.759 12.189,6.726 12.189,7.919 C12.189,9.113 11.227,10.079 10.040,10.079 ZM10.040,7.198 C9.644,7.198 9.323,7.521 9.323,7.919 C9.323,8.316 9.644,8.639 10.040,8.639 C10.435,8.639 10.756,8.316 10.756,7.919 C10.756,7.521 10.435,7.198 10.040,7.198 Z"/>
</svg>