<svg xmlns="http://www.w3.org/2000/svg" width="40" height="40" viewBox="0 0 40 40">
  <metadata><?xpacket begin="﻿" id="W5M0MpCehiHzreSzNTczkc9d"?>
<x:xmpmeta xmlns:x="adobe:ns:meta/" x:xmptk="Adobe XMP Core 5.6-c142 79.160924, 2017/07/13-01:06:39        ">
   <rdf:RDF xmlns:rdf="http://www.w3.org/1999/02/22-rdf-syntax-ns#">
      <rdf:Description rdf:about=""/>
   </rdf:RDF>
</x:xmpmeta>
                                                                                                    
                                                                                                    
                                                                                                    
                                                                                                    
                                                                                                    
                                                                                                    
                                                                                                    
                                                                                                    
                                                                                                    
                                                                                                    
                                                                                                    
                                                                                                    
                                                                                                    
                                                                                                    
                                                                                                    
                                                                                                    
                                                                                                    
                                                                                                    
                                                                                                    
                                                                                                    
                           
<?xpacket end="w"?></metadata>
<defs>
    <style>
      .cls-1 {
        fill: #40a6cf;
        fill-rule: evenodd;
      }
    </style>
  </defs>
  <path id="Forma_1" data-name="Forma 1" class="cls-1" d="M928,9534.57a0.794,0.794,0,0,0-.659-0.78l-2.884-.45-1.53-3.69,1.714-2.37a0.779,0.779,0,0,0-.08-1.01l-4.845-4.84a0.791,0.791,0,0,0-1.012-.08l-2.361,1.72-3.692-1.53-0.459-2.88a0.781,0.781,0,0,0-.771-0.66h-6.851a0.781,0.781,0,0,0-.771.66l-0.457,2.88-3.69,1.53-2.363-1.71a0.778,0.778,0,0,0-1.011.08l-4.842,4.85a0.78,0.78,0,0,0-.08,1.01l1.716,2.36-1.528,3.69-2.883.46a0.782,0.782,0,0,0-.658.77l0,6.85a0.776,0.776,0,0,0,.659.77l2.884,0.46,1.53,3.69-1.715,2.36a0.78,0.78,0,0,0,.081,1.01l4.845,4.85a0.79,0.79,0,0,0,1.011.08l2.362-1.72,3.692,1.53,0.459,2.88a0.781,0.781,0,0,0,.771.66h6.851a0.781,0.781,0,0,0,.771-0.66l0.457-2.89,3.689-1.53,2.364,1.72a0.79,0.79,0,0,0,1.011-.08l4.842-4.85a0.78,0.78,0,0,0,.08-1.01l-1.716-2.36,1.528-3.69,2.882-.46a0.782,0.782,0,0,0,.659-0.77Zm-4.215,6.6a0.787,0.787,0,0,0-.6.48l-1.862,4.5a0.766,0.766,0,0,0,.09.75l1.58,2.18-3.9,3.9-2.177-1.58a0.791,0.791,0,0,0-.758-0.09l-4.5,1.87a0.772,0.772,0,0,0-.472.6l-0.421,2.65-5.516.01-0.423-2.66a0.791,0.791,0,0,0-.473-0.6l-4.5-1.86a0.776,0.776,0,0,0-.758.09l-2.175,1.58-3.9-3.9,1.579-2.18a0.766,0.766,0,0,0,.09-0.75l-1.865-4.5a0.808,0.808,0,0,0-.6-0.48l-2.657-.42,0-5.51,2.655-.42a0.8,0.8,0,0,0,.6-0.48l1.863-4.5a0.787,0.787,0,0,0-.09-0.76l-1.581-2.17,3.9-3.9,2.178,1.58a0.791,0.791,0,0,0,.758.09l4.5-1.87a0.774,0.774,0,0,0,.472-0.6l0.421-2.66h5.516l0.423,2.66a0.789,0.789,0,0,0,.473.6l4.5,1.86a0.791,0.791,0,0,0,.758-0.09l2.175-1.58,3.9,3.9-1.579,2.17a0.788,0.788,0,0,0-.09.76l1.865,4.5a0.775,0.775,0,0,0,.6.47l2.657,0.42,0,5.52Zm-8.815-14.48a13.284,13.284,0,0,0-16.358,1.92,13.161,13.161,0,0,0-3.753,7.48,13.387,13.387,0,0,0,1.38,8.08,0.777,0.777,0,0,0,.693.42,0.788,0.788,0,0,0,.362-0.09,0.777,0.777,0,0,0,.329-1.05,11.723,11.723,0,0,1,16.526-15.43A0.782,0.782,0,0,0,914.967,9526.69Zm2.432,1.93-0.011-.01a0.78,0.78,0,1,0-1.1,1.11h0a0.776,0.776,0,0,0,1.1,0A0.776,0.776,0,0,0,917.4,9528.62Zm1.911,2.41a0.781,0.781,0,0,0-1.33.82,11.723,11.723,0,0,1-15.7,16.38,0.78,0.78,0,1,0-.763,1.36,13.322,13.322,0,0,0,6.5,1.69,14.1,14.1,0,0,0,1.717-.11,13.292,13.292,0,0,0,11.464-11.7A13.354,13.354,0,0,0,919.31,9531.03Zm-19.6,15.26-0.039-.04a0.782,0.782,0,1,0-1.111,1.1l0.045,0.04a0.779,0.779,0,0,0,1.105,0A0.776,0.776,0,0,0,899.714,9546.29Zm12.5-14.89a0.773,0.773,0,0,0-.722-0.08l-9.24,3.54H900.4a3.74,3.74,0,0,0,0,7.48h1.859l9.24,3.55a0.892,0.892,0,0,0,.28.05,0.788,0.788,0,0,0,.442-0.14,0.764,0.764,0,0,0,.339-0.64v-13.11A0.8,0.8,0,0,0,912.218,9531.4Zm-10.6,9.38H900.4a2.175,2.175,0,1,1,0-4.35h1.223v4.35Zm9.375,3.24-1.563-.6v-4.82a0.781,0.781,0,0,0-1.562,0v4.22l-4.688-1.8v-4.84l7.813-3v10.84Zm-2.344-8.82a0.783,0.783,0,0,0-.781.79V9536a0.781,0.781,0,0,0,1.562,0v-0.01A0.783,0.783,0,0,0,908.651,9535.2Zm6.115,1.42a0.78,0.78,0,0,0-1.105,1.1,1.245,1.245,0,0,1,0,1.76,0.783,0.783,0,1,0,1.105,1.11A2.81,2.81,0,0,0,914.766,9536.62Zm1.938-1.94a0.78,0.78,0,1,0-1.1,1.1,3.994,3.994,0,0,1,0,5.64,0.783,0.783,0,0,0,1.1,1.11A5.559,5.559,0,0,0,916.7,9534.68Z" transform="translate(-888 -9518)"/>
</svg>
