<svg xmlns="http://www.w3.org/2000/svg" width="44" height="44" viewBox="0 0 44 44">
  <metadata><?xpacket begin="﻿" id="W5M0MpCehiHzreSzNTczkc9d"?>
<x:xmpmeta xmlns:x="adobe:ns:meta/" x:xmptk="Adobe XMP Core 5.6-c142 79.160924, 2017/07/13-01:06:39        ">
   <rdf:RDF xmlns:rdf="http://www.w3.org/1999/02/22-rdf-syntax-ns#">
      <rdf:Description rdf:about=""/>
   </rdf:RDF>
</x:xmpmeta>
                                                                                                    
                                                                                                    
                                                                                                    
                                                                                                    
                                                                                                    
                                                                                                    
                                                                                                    
                                                                                                    
                                                                                                    
                                                                                                    
                                                                                                    
                                                                                                    
                                                                                                    
                                                                                                    
                                                                                                    
                                                                                                    
                                                                                                    
                                                                                                    
                                                                                                    
                                                                                                    
                           
<?xpacket end="w"?></metadata>
<defs>
    <style>
      .cls-1 {
        fill: #40a6cf;
        fill-rule: evenodd;
      }
    </style>
  </defs>
  <path id="Forma_1" data-name="Forma 1" class="cls-1" d="M887.839,5495.81h1.419v4.26h-1.419v-4.26Zm37.613-9.94h-4.418a14.756,14.756,0,0,0,.869-4.97,14.9,14.9,0,0,0-29.806,0,14.756,14.756,0,0,0,.869,4.97h-4.418a3.552,3.552,0,0,0-3.548,3.55v17.03a3.552,3.552,0,0,0,3.548,3.55h36.9a3.552,3.552,0,0,0,3.548-3.55v-17.03A3.552,3.552,0,0,0,925.452,5485.87Zm-14.053,5.62a2.666,2.666,0,0,0,.569.06,2.815,2.815,0,0,0,2.161-1.02,6.4,6.4,0,0,1,1.163.99,13.474,13.474,0,0,1-6.184,2.69A20.752,20.752,0,0,0,911.4,5491.49Zm-3.689,2.09v-4.84a13.231,13.231,0,0,1,1.432.11,2.832,2.832,0,0,0,.975,2A18.751,18.751,0,0,1,907.71,5493.58Zm2.838-4.87a1.42,1.42,0,1,1,1.42,1.42A1.424,1.424,0,0,1,910.548,5488.71Zm4.2,0.54a2.908,2.908,0,0,0,.054-0.54,2.824,2.824,0,0,0-.933-2.09,17.867,17.867,0,0,0,.9-5.01h5.671a13.444,13.444,0,0,1-4.084,8.98A7.628,7.628,0,0,0,914.752,5489.25Zm1.614-18.03a13.444,13.444,0,0,1,4.082,8.97h-5.659a17.969,17.969,0,0,0-1.606-6.8A8.968,8.968,0,0,0,916.366,5471.22Zm-1.071-.93a7.446,7.446,0,0,1-2.746,1.83,20.014,20.014,0,0,0-3.429-4.52A13.441,13.441,0,0,1,915.3,5470.29Zm-7.585-2.05a18.864,18.864,0,0,1,3.439,4.36,15.368,15.368,0,0,1-3.439.47v-4.83Zm0,6.25a16.468,16.468,0,0,0,4.109-.61,16.534,16.534,0,0,1,1.535,6.31H907.71v-5.7Zm0,7.12h5.648a16.583,16.583,0,0,1-.763,4.34,2.6,2.6,0,0,0-.627-0.08,2.837,2.837,0,0,0-2.532,1.58c-0.557-.07-1.133-0.11-1.726-0.13v-5.71h0Zm10.972,8.52h1.8v15.62H894.935v-15.62h0.383A14.853,14.853,0,0,0,918.682,5490.13Zm-15.832-.92a15.93,15.93,0,0,1,3.44-.48v4.84A18.863,18.863,0,0,1,902.85,5489.21Zm2.03,5a13.455,13.455,0,0,1-6.175-2.7,7.585,7.585,0,0,1,2.746-1.82A20.014,20.014,0,0,0,904.88,5494.21Zm-2.7-6.28a16.558,16.558,0,0,1-1.534-6.32h5.644v5.7A16.921,16.921,0,0,0,902.18,5487.93Zm-1.538-7.74a16.468,16.468,0,0,1,.763-4.33,2.6,2.6,0,0,0,.627.08,2.838,2.838,0,0,0,2.532-1.58c0.557,0.07,1.133.11,1.726,0.13v5.7h-5.648Zm1.39-5.67a1.42,1.42,0,1,1,1.42-1.42A1.423,1.423,0,0,1,902.032,5474.52Zm-1.216,13.9a9.1,9.1,0,0,0-3.182,2.16,13.4,13.4,0,0,1-4.082-8.97h5.658A17.994,17.994,0,0,0,900.816,5488.42Zm5.474-20.19v4.84c-0.492-.02-0.969-0.05-1.433-0.11a2.809,2.809,0,0,0-.974-2A18.633,18.633,0,0,1,906.29,5468.23Zm-1.4-.63a20.109,20.109,0,0,0-2.29,2.72,2.666,2.666,0,0,0-.569-0.06,2.815,2.815,0,0,0-2.161,1.02,6.827,6.827,0,0,1-1.163-.99A13.371,13.371,0,0,1,904.891,5467.6Zm-7.255,3.62a7.961,7.961,0,0,0,1.611,1.34,2.791,2.791,0,0,0,.88,2.63,17.863,17.863,0,0,0-.9,5h-5.672A13.442,13.442,0,0,1,897.636,5471.22Zm-6.959,37.36h-2.129a2.129,2.129,0,0,1-2.129-2.13v-17.03a2.135,2.135,0,0,1,2.129-2.13h2.129v21.29Zm32.645,0H892.1v-21.29h1.419v-0.08a14.406,14.406,0,0,0,.813,1.5h-0.813v18.45H921.9v-18.45H919.67a14.413,14.413,0,0,0,.814-1.5v0.08h2.838v21.29Zm4.259-2.13a2.129,2.129,0,0,1-2.129,2.13h-0.71v-21.29h0.71a2.135,2.135,0,0,1,2.129,2.13v17.03Z" transform="translate(-885 -5466)"/>
</svg>
